<?xml version="1.0" encoding="utf-8"?>
<!-- Generator: Adobe Illustrator 17.0.0, SVG Export Plug-In . SVG Version: 6.00 Build 0)  -->
<!DOCTYPE svg PUBLIC "-//W3C//DTD SVG 1.1//EN" "http://www.w3.org/Graphics/SVG/1.1/DTD/svg11.dtd">
<svg version="1.1" id="Warstwa_1" xmlns="http://www.w3.org/2000/svg" xmlns:xlink="http://www.w3.org/1999/xlink" x="0px" y="0px"
	 width="400px" height="400px" viewBox="0 0 400 400" enable-background="new 0 0 400 400" xml:space="preserve">
<g>
	<defs>
		<rect id="SVGID_1_" x="0" y="0" width="400" height="400"/>
	</defs>
	<clipPath id="SVGID_2_">
		<use xlink:href="#SVGID_1_"  overflow="visible"/>
	</clipPath>
	<path clip-path="url(#SVGID_2_)" fill="#D4EBFF" d="M400,200c0,110.457-89.543,200-200,200S0,310.457,0,200S89.543,0,200,0
		S400,89.543,400,200"/>
	<path clip-path="url(#SVGID_2_)" fill="#FFFFFF" d="M298.693,94.386h-39.896v17.817h-88.414V94.386h-39.896
		c-0.937,0-1.697,0.759-1.697,1.697v54.088h16.072c3.037,0,5.499,2.461,5.499,5.499c0,3.037-2.462,5.499-5.499,5.499h-3.527v53.916
		v78.499h122.147v-36.908h36.908V96.083C300.39,95.146,299.63,94.386,298.693,94.386 M233.092,242.233h-53.556
		c-3.037,0-5.499-2.462-5.499-5.499c0-3.037,2.462-5.499,5.499-5.499h53.556c3.037,0,5.499,2.461,5.499,5.499
		C238.591,239.771,236.129,242.233,233.092,242.233 M260.243,212.743h-80.707c-3.037,0-5.499-2.461-5.499-5.499
		c0-3.037,2.462-5.499,5.499-5.499h80.707c3.037,0,5.499,2.462,5.499,5.499C265.741,210.282,263.279,212.743,260.243,212.743
		 M174.037,178.235c0-3.037,2.462-5.499,5.499-5.499h53.556c3.037,0,5.499,2.462,5.499,5.499c0,3.037-2.462,5.499-5.499,5.499
		h-53.556C176.499,183.734,174.037,181.272,174.037,178.235 M260.243,153.204h-80.707c-3.037,0-5.499-2.462-5.499-5.499
		c0-3.037,2.462-5.499,5.499-5.499h80.707c3.037,0,5.499,2.462,5.499,5.499C265.741,150.742,263.279,153.204,260.243,153.204"/>
	<polygon clip-path="url(#SVGID_2_)" fill="#7AE4F5" points="263.481,293.584 300.389,256.676 263.481,256.676 	"/>
	<rect x="89.128" y="161.169" clip-path="url(#SVGID_2_)" fill="#7AE4F5" width="52.207" height="53.916"/>
	<path clip-path="url(#SVGID_2_)" fill="#4498D8" d="M89.128,215.085v96.485c0,14.416,11.687,26.103,26.104,26.103
		c14.416,0,26.103-11.687,26.103-26.103v-17.986v-78.499H89.128z M101.3,255.319c0-3.037,2.462-5.499,5.499-5.499
		c3.037,0,5.499,2.462,5.499,5.499v8.664c0,3.037-2.462,5.499-5.499,5.499c-3.037,0-5.499-2.462-5.499-5.499V255.319z
		 M120.692,318.118c-0.331,2.796-2.706,4.852-5.454,4.852c-0.216,0-0.434-0.013-0.654-0.039
		c-1.359-0.161-13.284-2.198-13.284-23.789v-17.514c0-3.037,2.462-5.499,5.499-5.499c3.037,0,5.499,2.462,5.499,5.499v17.514
		c0,9.408,2.801,12.488,3.951,12.925C119.068,312.595,121.035,315.228,120.692,318.118"/>
	<path clip-path="url(#SVGID_2_)" fill="#4498D8" d="M144.862,150.171H128.79H84.129c-3.037,0-5.499,2.462-5.499,5.499
		s2.462,5.499,5.499,5.499h4.999h52.207h3.527c3.037,0,5.499-2.462,5.499-5.499S147.898,150.171,144.862,150.171"/>
	<path clip-path="url(#SVGID_2_)" fill="#4498D8" d="M260.243,142.207h-80.707c-3.037,0-5.499,2.462-5.499,5.499
		c0,3.037,2.461,5.499,5.499,5.499h80.707c3.037,0,5.499-2.462,5.499-5.499C265.742,144.669,263.28,142.207,260.243,142.207
		 M179.536,147.705h80.706H179.536z"/>
	<path clip-path="url(#SVGID_2_)" fill="#4498D8" d="M179.536,183.734h53.555c3.037,0,5.499-2.462,5.499-5.499
		c0-3.037-2.461-5.499-5.499-5.499h-53.555c-3.037,0-5.499,2.462-5.499,5.499C174.037,181.272,176.499,183.734,179.536,183.734
		 M233.092,178.235h-53.555H233.092z"/>
	<path clip-path="url(#SVGID_2_)" fill="#4498D8" d="M260.243,201.746h-80.707c-3.037,0-5.499,2.462-5.499,5.499
		c0,3.037,2.461,5.499,5.499,5.499h80.707c3.037,0,5.499-2.462,5.499-5.499C265.742,204.208,263.28,201.746,260.243,201.746
		 M179.536,207.244h80.706H179.536z"/>
	<path clip-path="url(#SVGID_2_)" fill="#4498D8" d="M233.092,231.235h-53.555c-3.037,0-5.499,2.462-5.499,5.499
		c0,3.037,2.461,5.499,5.499,5.499h53.555c3.037,0,5.499-2.462,5.499-5.499C238.59,233.697,236.129,231.235,233.092,231.235
		 M179.536,236.734h53.555H179.536z"/>
	<path clip-path="url(#SVGID_2_)" fill="#7AE4F5" d="M233.462,80.386c-0.052-10.396-8.494-18.808-18.902-18.808
		c-10.408,0-18.849,8.412-18.902,18.808h-25.277v14v17.817h88.414V94.386v-14H233.462z"/>
	<path clip-path="url(#SVGID_2_)" fill="#7AE4F5" d="M116.248,312.067c-1.15-0.437-3.951-3.517-3.951-12.924v-17.514
		c0-3.037-2.462-5.499-5.499-5.499c-3.037,0-5.499,2.462-5.499,5.499v17.514c0,21.591,11.924,23.628,13.284,23.789
		c0.219,0.026,0.438,0.039,0.654,0.039c2.748,0,5.123-2.056,5.454-4.852C121.035,315.227,119.069,312.595,116.248,312.067"/>
	<path clip-path="url(#SVGID_2_)" fill="#7AE4F5" d="M106.799,269.482c3.037,0,5.499-2.462,5.499-5.499v-8.664
		c0-3.037-2.462-5.499-5.499-5.499c-3.037,0-5.499,2.462-5.499,5.499v8.664C101.3,267.02,103.762,269.482,106.799,269.482"/>
</g>
</svg>
